<?xml version="1.0" encoding="utf-8"?>
<!-- Generator: Adobe Illustrator 16.0.0, SVG Export Plug-In . SVG Version: 6.00 Build 0)  -->
<!DOCTYPE svg PUBLIC "-//W3C//DTD SVG 1.0//EN" "http://www.w3.org/TR/2001/REC-SVG-20010904/DTD/svg10.dtd">
<svg version="1.0" xmlns="http://www.w3.org/2000/svg" xmlns:xlink="http://www.w3.org/1999/xlink" x="0px" y="0px" width="1700px"
	 height="976px" viewBox="0 0 1700 976" enable-background="new 0 0 1700 976" xml:space="preserve">
<g id="background">
	<g opacity="0.1">
		
			<radialGradient id="SVGID_1_" cx="849.8594" cy="620.9912" r="1055.0588" gradientTransform="matrix(1.0078 0 0 0.7336 -6.4561 34.4378)" gradientUnits="userSpaceOnUse">
			<stop  offset="0.6416" style="stop-color:#000000;stop-opacity:0"/>
			<stop  offset="1" style="stop-color:#000000"/>
		</radialGradient>
		<rect x="-11.528" y="-11.945" fill="url(#SVGID_1_)" width="1723.057" height="1003.945"/>
	</g>
	<g>
		<g opacity="0.1">
			<circle fill="#231F20" cx="258.153" cy="213.652" r="120.481"/>
			<circle fill="#231F20" cx="555.55" cy="213.652" r="120.481"/>
			<circle fill="#231F20" cx="852.946" cy="213.652" r="120.48"/>
			<circle fill="#231F20" cx="1150.349" cy="213.652" r="120.482"/>
			<circle fill="#231F20" cx="1447.745" cy="213.652" r="120.48"/>
			<circle fill="#231F20" cx="258.153" cy="488.47" r="120.481"/>
			<circle fill="#231F20" cx="555.55" cy="488.47" r="120.481"/>
			<circle fill="#231F20" cx="852.946" cy="488.47" r="120.48"/>
			<circle fill="#231F20" cx="1150.349" cy="488.47" r="120.482"/>
			<circle fill="#231F20" cx="1447.745" cy="488.47" r="120.48"/>
			<path fill="#231F20" d="M378.634,763.294c0,66.54-53.942,120.479-120.481,120.479s-120.48-53.939-120.48-120.479
				c0-66.543,53.941-120.487,120.48-120.487S378.634,696.751,378.634,763.294z"/>
			<path fill="#231F20" d="M676.031,763.294c0,66.54-53.941,120.479-120.482,120.479c-66.538,0-120.479-53.939-120.479-120.479
				c0-66.543,53.941-120.487,120.479-120.487C622.09,642.807,676.031,696.751,676.031,763.294z"/>
			<path fill="#231F20" d="M973.427,763.294c0,66.54-53.938,120.479-120.478,120.479s-120.483-53.939-120.483-120.479
				c0-66.543,53.943-120.487,120.483-120.487S973.427,696.751,973.427,763.294z"/>
			<path fill="#231F20" d="M1270.831,763.294c0,66.54-53.944,120.479-120.483,120.479c-66.541,0-120.481-53.939-120.481-120.479
				c0-66.543,53.94-120.487,120.481-120.487C1216.887,642.807,1270.831,696.751,1270.831,763.294z"/>
			<path fill="#231F20" d="M1568.226,763.294c0,66.54-53.941,120.479-120.481,120.479c-66.538,0-120.479-53.939-120.479-120.479
				c0-66.543,53.941-120.487,120.479-120.487C1514.284,642.807,1568.226,696.751,1568.226,763.294z"/>
			<circle fill="#231F20" cx="258.152" cy="213.653" r="120.482"/>
			<circle fill="#231F20" cx="555.549" cy="213.653" r="120.482"/>
			<circle fill="#231F20" cx="852.949" cy="213.653" r="120.482"/>
			<circle fill="#231F20" cx="1150.348" cy="213.653" r="120.482"/>
			<circle fill="#231F20" cx="1447.744" cy="213.653" r="120.482"/>
			<circle fill="#231F20" cx="258.152" cy="488.47" r="120.481"/>
			<circle fill="#231F20" cx="555.549" cy="488.47" r="120.481"/>
			<circle fill="#231F20" cx="852.949" cy="488.47" r="120.481"/>
			<circle fill="#231F20" cx="1150.348" cy="488.47" r="120.481"/>
			<circle fill="#231F20" cx="1447.744" cy="488.47" r="120.481"/>
			<path fill="#231F20" d="M258.152,642.807c-66.539,0-120.48,53.944-120.48,120.487c0,66.54,53.941,120.479,120.48,120.479
				s120.481-53.939,120.481-120.479C378.634,696.751,324.691,642.807,258.152,642.807z"/>
			<path fill="#231F20" d="M555.549,642.807c-66.538,0-120.479,53.944-120.479,120.487c0,66.54,53.941,120.479,120.479,120.479
				c66.541,0,120.482-53.939,120.482-120.479C676.031,696.751,622.09,642.807,555.549,642.807z"/>
			<path fill="#231F20" d="M852.949,642.807c-66.54,0-120.483,53.944-120.483,120.487c0,66.54,53.943,120.479,120.483,120.479
				s120.478-53.939,120.478-120.479C973.427,696.751,919.489,642.807,852.949,642.807z"/>
			<path fill="#231F20" d="M1150.348,642.807c-66.541,0-120.481,53.944-120.481,120.487c0,66.54,53.94,120.479,120.481,120.479
				c66.539,0,120.483-53.939,120.483-120.479C1270.831,696.751,1216.887,642.807,1150.348,642.807z"/>
			<path fill="#231F20" d="M1447.744,642.807c-66.538,0-120.479,53.944-120.479,120.487c0,66.54,53.941,120.479,120.479,120.479
				c66.54,0,120.481-53.939,120.481-120.479C1568.226,696.751,1514.284,642.807,1447.744,642.807z"/>
		</g>
		<circle fill="#54C6DE" cx="249.756" cy="208.708" r="120.481"/>
		<circle fill="#54C6DE" cx="547.153" cy="208.708" r="120.48"/>
		<path fill="#54C6DE" d="M965.029,208.708c0,66.541-53.938,120.482-120.477,120.482c-66.541,0-120.485-53.941-120.485-120.482
			c0-66.54,53.944-120.481,120.485-120.481C911.092,88.227,965.029,142.168,965.029,208.708z"/>
		<circle fill="#54C6DE" cx="1141.951" cy="208.708" r="120.482"/>
		<circle fill="#54C6DE" cx="1439.348" cy="208.708" r="120.48"/>
		<circle fill="#185882" cx="249.756" cy="483.526" r="120.481"/>
		<circle fill="#185882" cx="547.153" cy="483.526" r="120.48"/>
		<path fill="#185882" d="M965.029,483.526c0,66.542-53.938,120.481-120.477,120.481c-66.541,0-120.485-53.939-120.485-120.481
			c0-66.54,53.944-120.482,120.485-120.482C911.092,363.044,965.029,416.986,965.029,483.526z"/>
		<circle fill="#185882" cx="1141.951" cy="483.526" r="120.482"/>
		<circle fill="#185882" cx="1439.348" cy="483.526" r="120.48"/>
		<path fill="#4A7EBB" d="M370.237,758.35c0,66.54-53.942,120.48-120.482,120.48c-66.539,0-120.48-53.94-120.48-120.48
			c0-66.543,53.941-120.486,120.48-120.486C316.295,637.863,370.237,691.807,370.237,758.35z"/>
		<path fill="#4A7EBB" d="M667.634,758.35c0,66.54-53.941,120.48-120.481,120.48c-66.539,0-120.479-53.94-120.479-120.48
			c0-66.543,53.94-120.486,120.479-120.486C613.692,637.863,667.634,691.807,667.634,758.35z"/>
		<path fill="#4A7EBB" d="M965.029,758.35c0,66.54-53.938,120.48-120.477,120.48c-66.541,0-120.485-53.94-120.485-120.48
			c0-66.543,53.944-120.486,120.485-120.486C911.092,637.863,965.029,691.807,965.029,758.35z"/>
		<path fill="#4A7EBB" d="M1262.433,758.35c0,66.54-53.943,120.48-120.481,120.48c-66.541,0-120.482-53.94-120.482-120.48
			c0-66.543,53.941-120.486,120.482-120.486C1208.489,637.863,1262.433,691.807,1262.433,758.35z"/>
		<path fill="#4A7EBB" d="M1559.828,758.35c0,66.54-53.941,120.48-120.481,120.48c-66.538,0-120.479-53.94-120.479-120.48
			c0-66.543,53.941-120.486,120.479-120.486C1505.887,637.863,1559.828,691.807,1559.828,758.35z"/>
		<circle fill="#68CCE8" cx="249.755" cy="208.708" r="120.482"/>
		<circle fill="#68CCE8" cx="547.152" cy="208.708" r="120.482"/>
		<path fill="#68CCE8" d="M844.553,88.227c-66.541,0-120.485,53.941-120.485,120.481c0,66.541,53.944,120.482,120.485,120.482
			c66.539,0,120.477-53.941,120.477-120.482C965.029,142.168,911.092,88.227,844.553,88.227z"/>
		<circle fill="#68CCE8" cx="1141.951" cy="208.708" r="120.482"/>
		<circle fill="#68CCE8" cx="1439.347" cy="208.708" r="120.482"/>
		<circle fill="none" cx="249.755" cy="483.526" r="120.482"/>
		<circle fill="none" cx="547.152" cy="483.526" r="120.482"/>
		<path fill="none" d="M844.553,363.044c-66.541,0-120.485,53.942-120.485,120.482c0,66.542,53.944,120.481,120.485,120.481
			c66.539,0,120.477-53.939,120.477-120.481C965.029,416.986,911.092,363.044,844.553,363.044z"/>
		<circle fill="none" cx="1141.951" cy="483.526" r="120.482"/>
		<circle fill="none" cx="1439.347" cy="483.526" r="120.482"/>
		<circle fill="none" cx="249.755" cy="758.347" r="120.483"/>
		<circle fill="none" cx="547.152" cy="758.347" r="120.483"/>
		<path fill="none" d="M844.553,637.863c-66.541,0-120.485,53.943-120.485,120.486c0,66.54,53.944,120.48,120.485,120.48
			c66.539,0,120.477-53.94,120.477-120.48C965.029,691.807,911.092,637.863,844.553,637.863z"/>
		<circle fill="none" cx="1141.951" cy="758.347" r="120.483"/>
		<circle fill="none" cx="1439.347" cy="758.347" r="120.483"/>
		<path fill="#FFFFFF" d="M604.521,202.797c-2.936-23.945-23.493-42.35-47.89-42.35c-19.159,0-36.531,11.456-44.182,28.816
			c-0.94-0.083-1.861-0.125-2.774-0.125c-18.699,0-33.913,15.216-33.913,33.916c0,18.703,15.214,33.916,33.913,33.916h83.951
			c15.54,0,28.18-12.641,28.18-28.179C621.806,217.287,614.962,207.147,604.521,202.797z"/>
		<g>
			<path fill="#FAD053" d="M293.568,208.708c0-24.158-19.654-43.813-43.813-43.813c-24.158,0-43.813,19.654-43.813,43.813
				c0,24.16,19.655,43.813,43.813,43.813C273.914,252.521,293.568,232.868,293.568,208.708z M320.75,213.576v-9.734h-15.012v9.734
				H320.75z M292.783,172.565l10.615-10.614l-6.886-6.884L285.9,165.682L292.783,172.565z M244.888,137.715v15.011h9.736v-15.011
				H244.888z M202.996,155.064l-6.883,6.885l10.614,10.615l6.885-6.884L202.996,155.064z M178.762,203.842v9.734h15.011v-9.734
				H178.762z M206.728,244.853l-10.615,10.615l6.884,6.883l10.614-10.613L206.728,244.853z M254.624,264.693h-9.737v15.009h9.737
				V264.693z M292.784,244.853l-6.884,6.887l10.612,10.612l6.886-6.886L292.784,244.853z"/>
			<g>
				
					<rect x="287.144" y="248.734" transform="matrix(0.7071 0.7071 -0.7071 0.7071 265.6071 -134.0688)" fill="#E5C159" width="15.01" height="9.737"/>
				<path fill="#E5C159" d="M293.561,208.979h-87.61c0.145,24.033,19.737,43.543,43.805,43.543
					C273.823,252.521,293.416,233.012,293.561,208.979z"/>
				
					<rect x="197.356" y="248.734" transform="matrix(0.7071 -0.7071 0.7071 0.7071 -119.3207 219.1374)" fill="#E5C159" width="15.012" height="9.734"/>
				<rect x="305.738" y="208.979" fill="#E5C159" width="15.012" height="4.598"/>
				<rect x="244.887" y="264.693" fill="#E5C159" width="9.737" height="15.009"/>
				<rect x="178.762" y="208.979" fill="#E5C159" width="15.011" height="4.598"/>
			</g>
		</g>
		<path fill="#D6EEF4" d="M475.762,223.055c0,18.703,15.214,33.916,33.913,33.916h83.951c15.54,0,28.18-12.641,28.18-28.179
			c0-2.406-0.316-4.745-0.886-6.991H475.792C475.776,222.219,475.762,222.634,475.762,223.055z"/>
		<g>
			<path fill="#FAD053" d="M817.397,187.438c0-13.965-11.361-25.328-25.329-25.328s-25.331,11.363-25.331,25.328
				c0,13.967,11.363,25.332,25.331,25.332S817.397,201.404,817.397,187.438z M833.113,190.254v-5.63h-8.68v5.63H833.113z
				 M816.944,166.542l6.137-6.136l-3.98-3.979l-6.137,6.137L816.944,166.542z M789.253,146.394v8.679h5.629v-8.679H789.253z
				 M765.034,156.425l-3.978,3.98l6.136,6.137l3.979-3.98L765.034,156.425z M751.021,184.624v5.63h8.682v-5.63H751.021z
				 M767.192,208.335l-6.136,6.137l3.978,3.98l6.137-6.139L767.192,208.335z M794.882,219.807h-5.629v8.677h5.629V219.807z
				 M816.944,208.335l-3.98,3.981l6.137,6.136l3.98-3.981L816.944,208.335z"/>
			<g>
				
					<rect x="813.683" y="210.579" transform="matrix(0.7072 0.7071 -0.7071 0.7072 390.4272 -515.8937)" fill="#E5C159" width="8.678" height="5.63"/>
				<path fill="#E5C159" d="M817.394,187.595H766.74c0.085,13.894,11.411,25.175,25.328,25.175
					C805.982,212.77,817.31,201.488,817.394,187.595z"/>
				
					<rect x="761.774" y="210.58" transform="matrix(0.7071 -0.7072 0.7072 0.7071 73.5284 604.2805)" fill="#E5C159" width="8.678" height="5.627"/>
				<rect x="824.434" y="187.595" fill="#E5C159" width="8.68" height="2.659"/>
				<rect x="789.253" y="219.807" fill="#E5C159" width="5.629" height="8.677"/>
				<rect x="751.021" y="187.595" fill="#E5C159" width="8.682" height="2.659"/>
			</g>
			<path fill="#FFFFFF" d="M907.411,201.236c-2.936-23.947-23.492-42.352-47.889-42.352c-19.161,0-36.532,11.457-44.183,28.817
				c-0.94-0.083-1.861-0.125-2.774-0.125c-18.7,0-33.915,15.217-33.915,33.917s15.215,33.916,33.915,33.916h83.953
				c15.535,0,28.182-12.642,28.182-28.179C924.7,215.728,917.854,205.585,907.411,201.236z"/>
			<path fill="#D6EEF4" d="M778.65,221.494c0,18.7,15.215,33.916,33.915,33.916h83.953c15.535,0,28.182-12.642,28.182-28.179
				c0-2.405-0.316-4.747-0.886-6.992H778.681C778.668,220.656,778.65,221.074,778.65,221.494z"/>
		</g>
		<g>
			<g>
				<path fill="#5175B9" d="M551.035,731.263l8.868,10.379l16.229-8.619l17.957,3.431l9.307,8.867l4.325,13.92h14.063l-4.543-16.3
					c0,0-9.088-13.485-9.952-13.883c-0.866-0.396-18.513-9.053-18.513-9.053s-20.001,1.299-20.65,1.299
					S551.035,731.263,551.035,731.263z"/>
				<polygon fill="#FFD212" points="638.479,759.24 621.784,759.24 609.886,732.338 586.713,718.801 566.613,722.601 
					551.035,731.263 539.072,723.859 564.88,707.888 591.278,706.808 605.124,712.863 621.568,725.412 631.304,742.507 				"/>
				<path fill="#765EA7" d="M580.778,729.058c-8.736,0-16.614,3.731-22.133,9.686c1.655,2.252,3.025,4.722,4.063,7.348
					c4.071-5.589,10.64-9.244,18.069-9.244c12.348,0,22.393,10.046,22.393,22.394h7.79
					C610.961,742.595,597.421,729.058,580.778,729.058z"/>
				<path fill="#81C460" d="M580.778,715.426c-12.588,0-23.944,5.344-31.943,13.872c0.765,0.62,1.493,1.282,2.2,1.965
					c1.322,0.938,2.573,1.969,3.747,3.086c6.561-6.85,15.782-11.135,25.996-11.135c19.865,0,36.024,16.161,36.024,36.026h7.789
					C624.592,735.082,604.938,715.426,580.778,715.426z"/>
				<path fill="#EE463E" d="M580.778,701.541c-18.069,0-34.217,8.354-44.804,21.396c2.713,0.651,5.302,1.646,7.719,2.94
					c9.144-10.15,22.379-16.547,37.085-16.547c27.521,0,49.91,22.389,49.91,49.91h7.79
					C638.479,727.425,612.594,701.541,580.778,701.541z"/>
			</g>
			<g>
				<path fill="#FFFFFF" d="M583.904,754.117c-2.765-22.571-22.145-39.917-45.138-39.917c-18.057,0-34.43,10.797-41.64,27.16
					c-0.888-0.077-1.755-0.118-2.616-0.118c-17.626,0-31.964,14.341-31.964,31.969c0,17.624,14.338,31.962,31.964,31.962h79.123
					c14.646,0,26.563-11.91,26.563-26.557C600.196,767.773,593.744,758.215,583.904,754.117z"/>
				<path fill="#D6EEF4" d="M462.547,773.211c0,17.624,14.338,31.962,31.964,31.962h79.123c14.646,0,26.563-11.91,26.563-26.557
					c0-2.267-0.299-4.472-0.835-6.588H462.575C462.562,772.421,462.547,772.813,462.547,773.211z"/>
			</g>
		</g>
		<g>
			<g>
				<path fill="#A4D7E5" d="M1139.644,179.908c2.19-17.873,17.536-31.609,35.74-31.609c14.301,0,27.268,8.551,32.975,21.509
					c0.705-0.063,1.395-0.095,2.073-0.095c13.958,0,25.311,11.356,25.311,25.314c0,13.959-11.353,25.313-25.311,25.313h-62.659
					c-11.595,0-21.032-9.435-21.032-21.032C1126.74,190.723,1131.85,183.155,1139.644,179.908z"/>
				<path fill="#90C5D0" d="M1235.742,195.027c0,13.959-11.353,25.313-25.311,25.313h-62.659c-11.595,0-21.032-9.435-21.032-21.032
					c0-1.795,0.238-3.54,0.663-5.218h108.318C1235.729,194.402,1235.742,194.714,1235.742,195.027z"/>
			</g>
			<path fill="#FFFFFF" d="M1185.983,201.447c-2.937-23.947-23.496-42.351-47.894-42.351c-19.157,0-36.528,11.457-44.179,28.818
				c-0.94-0.085-1.86-0.126-2.773-0.126c-18.701,0-33.916,15.215-33.916,33.916c0,18.702,15.215,33.916,33.916,33.916h83.951
				c15.539,0,28.176-12.64,28.176-28.177C1203.265,215.939,1196.423,205.797,1185.983,201.447z"/>
			<path fill="#D6EEF4" d="M1057.222,221.705c0,18.702,15.215,33.916,33.916,33.916h83.951c15.539,0,28.176-12.64,28.176-28.177
				c0-2.407-0.313-4.748-0.883-6.993h-145.128C1057.239,220.867,1057.222,221.285,1057.222,221.705z"/>
		</g>
		<g>
			<path fill="#FFFFFF" d="M1495.127,193.74c-2.935-23.946-23.494-42.351-47.889-42.351c-19.16,0-36.531,11.457-44.184,28.816
				c-0.94-0.084-1.858-0.124-2.772-0.124c-18.702,0-33.914,15.216-33.914,33.917c0,18.699,15.212,33.915,33.914,33.915h83.952
				c15.536,0,28.179-12.642,28.179-28.178C1512.413,208.231,1505.563,198.089,1495.127,193.74z"/>
			<path fill="#D6EEF4" d="M1366.368,213.999c0,18.699,15.212,33.915,33.914,33.915h83.952c15.536,0,28.179-12.642,28.179-28.178
				c0-2.406-0.318-4.745-0.886-6.994h-145.128C1366.382,213.16,1366.368,213.576,1366.368,213.999z"/>
			<g>
				<path fill="#D0DFF2" d="M1414.743,266.227c-0.921-1.83-2.218-3.577-3.304-5.32c-1.111-1.787-2.222-3.576-3.337-5.365
					c-2.15,3.463-4.473,6.863-6.492,10.402c-2.071,3.63-0.642,8.388,3.063,10.309c3.613,1.871,8.19,0.404,10.063-3.202
					C1415.834,270.93,1415.834,268.352,1414.743,266.227z"/>
				<path fill="#D0DFF2" d="M1444.28,266.227c-0.924-1.83-2.221-3.577-3.304-5.32c-1.117-1.787-2.228-3.576-3.339-5.365
					c-2.154,3.463-4.475,6.863-6.49,10.402c-2.07,3.63-0.646,8.388,3.059,10.309c3.614,1.871,8.192,0.404,10.061-3.202
					C1445.366,270.93,1445.366,268.352,1444.28,266.227z"/>
				<path fill="#D0DFF2" d="M1473.812,266.227c-0.92-1.83-2.22-3.577-3.306-5.32c-1.111-1.787-2.226-3.576-3.337-5.365
					c-2.152,3.463-4.471,6.863-6.49,10.402c-2.07,3.63-0.641,8.388,3.063,10.309c3.611,1.871,8.191,0.404,10.063-3.202
					C1474.903,270.93,1474.903,268.352,1473.812,266.227z"/>
			</g>
		</g>
		<g>
			<path fill="#FBCF16" d="M221.83,738.785c0-13.966-11.362-25.33-25.33-25.33c-13.966,0-25.329,11.364-25.329,25.33
				s11.363,25.33,25.329,25.33C210.468,764.115,221.83,752.751,221.83,738.785z M237.545,741.602v-5.632h-8.679v5.632H237.545z
				 M221.377,717.89l6.137-6.139l-3.98-3.976l-6.137,6.135L221.377,717.89z M193.687,697.739v8.681h5.628v-8.681H193.687z
				 M169.468,707.771l-3.981,3.98l6.139,6.137l3.979-3.979L169.468,707.771z M155.456,735.97v5.632h8.678v-5.632H155.456z
				 M171.625,759.682l-6.139,6.136l3.98,3.981l6.137-6.138L171.625,759.682z M199.314,771.153h-5.628v8.677h5.628V771.153z
				 M221.377,759.682l-3.979,3.981l6.136,6.136l3.98-3.981L221.377,759.682z"/>
			<g>
				
					<rect x="218.117" y="761.926" transform="matrix(0.7072 0.7071 -0.7071 0.7072 605.8531 66.6569)" fill="#E7C01F" width="8.678" height="5.629"/>
				<path fill="#E7C01F" d="M221.826,738.941h-50.652c0.086,13.895,11.411,25.174,25.326,25.174S221.743,752.836,221.826,738.941z"
					/>
				
					<rect x="166.206" y="761.925" transform="matrix(0.7073 -0.7069 0.7069 0.7073 -490.7009 344.4235)" fill="#E7C01F" width="8.679" height="5.63"/>
				<rect x="228.866" y="738.941" fill="#E7C01F" width="8.679" height="2.66"/>
				<rect x="193.687" y="771.153" fill="#E7C01F" width="5.628" height="8.677"/>
				<rect x="155.456" y="738.941" fill="#E7C01F" width="8.678" height="2.66"/>
			</g>
			<path fill="#FFFFFF" d="M311.843,752.584c-2.934-23.949-23.493-42.352-47.889-42.352c-19.16,0-36.531,11.455-44.182,28.817
				c-0.941-0.084-1.862-0.125-2.775-0.125c-18.699,0-33.914,15.214-33.914,33.917c0,18.7,15.215,33.914,33.914,33.914h83.953
				c15.538,0,28.18-12.643,28.18-28.177C329.13,767.074,322.283,756.931,311.843,752.584z"/>
			<path fill="#D6EEF4" d="M183.083,772.842c0,18.7,15.215,33.914,33.914,33.914h83.953c15.538,0,28.18-12.643,28.18-28.177
				c0-2.406-0.317-4.749-0.885-6.991h-145.13C183.102,772.002,183.083,772.421,183.083,772.842z"/>
			<g>
				<path fill="#9AB9E1" d="M231.404,824.816c-0.92-1.829-2.22-3.574-3.305-5.319c-1.112-1.786-2.225-3.575-3.338-5.365
					c-2.152,3.463-4.472,6.863-6.49,10.403c-2.07,3.629-0.643,8.389,3.062,10.307c3.611,1.872,8.191,0.406,10.061-3.201
					C232.493,829.52,232.493,826.943,231.404,824.816z"/>
				<path fill="#9AB9E1" d="M260.939,824.816c-0.923-1.829-2.222-3.574-3.308-5.319c-1.11-1.786-2.225-3.575-3.336-5.365
					c-2.154,3.463-4.473,6.863-6.492,10.403c-2.068,3.629-0.642,8.389,3.062,10.307c3.613,1.872,8.191,0.406,10.061-3.201
					C262.027,829.52,262.027,826.943,260.939,824.816z"/>
				<path fill="#9AB9E1" d="M290.473,824.816c-0.923-1.829-2.221-3.574-3.306-5.319c-1.113-1.786-2.225-3.575-3.337-5.365
					c-2.154,3.463-4.474,6.863-6.491,10.403c-2.068,3.629-0.643,8.389,3.061,10.307c3.613,1.872,8.191,0.406,10.062-3.201
					C291.559,829.52,291.559,826.943,290.473,824.816z"/>
			</g>
		</g>
		<g>
			<g>
				<path fill="#A4D7E5" d="M302.72,468.854c-2.768-22.569-22.144-39.915-45.137-39.915c-18.057,0-34.432,10.797-41.641,27.158
					c-0.888-0.075-1.756-0.116-2.616-0.116c-17.624,0-31.964,14.341-31.964,31.965c0,17.628,14.34,31.966,31.964,31.966h79.124
					c14.646,0,26.561-11.913,26.561-26.557C319.011,482.511,312.558,472.953,302.72,468.854z"/>
				<path fill="#90C5D0" d="M181.362,487.945c0,17.628,14.34,31.966,31.964,31.966h79.124c14.646,0,26.561-11.913,26.561-26.557
					c0-2.268-0.297-4.474-0.834-6.592H181.393C181.376,487.158,181.362,487.551,181.362,487.945z"/>
			</g>
			<path fill="#5F87C5" d="M245.747,517.058c-2.104-4.17-5.068-8.157-7.541-12.136c-2.537-4.08-5.076-8.159-7.614-12.238
				c-4.912,7.897-10.205,15.656-14.81,23.73c-4.725,8.279-1.467,19.139,6.981,23.519c8.244,4.271,18.693,0.927,22.959-7.304
				C248.229,527.791,248.229,521.91,245.747,517.058z"/>
			<path fill="#5F87C5" d="M260.006,550.231c-0.922-1.828-2.221-3.574-3.304-5.32c-1.113-1.787-2.226-3.576-3.338-5.362
				c-2.153,3.46-4.473,6.862-6.492,10.401c-2.068,3.628-0.642,8.386,3.063,10.307c3.612,1.874,8.191,0.407,10.062-3.2
				C261.096,554.935,261.096,552.357,260.006,550.231z"/>
			<path fill="#5F87C5" d="M278.354,538.213c-0.92-1.827-2.22-3.572-3.304-5.318c-1.114-1.785-2.227-3.576-3.338-5.364
				c-2.153,3.462-4.473,6.864-6.492,10.402c-2.069,3.63-0.642,8.389,3.061,10.309c3.613,1.872,8.194,0.404,10.063-3.201
				C279.442,542.918,279.442,540.341,278.354,538.213z"/>
		</g>
		<g>
			<g>
				<path fill="#A4D7E5" d="M601.317,466.985c-2.768-22.569-22.145-39.914-45.139-39.914c-18.055,0-34.429,10.798-41.639,27.159
					c-0.888-0.076-1.754-0.117-2.617-0.117c-17.625,0-31.963,14.342-31.963,31.966c0,17.627,14.338,31.966,31.963,31.966h79.125
					c14.646,0,26.559-11.914,26.559-26.556C617.606,480.645,611.155,471.087,601.317,466.985z"/>
				<path fill="#90C5D0" d="M479.96,486.079c0,17.627,14.338,31.966,31.963,31.966h79.125c14.646,0,26.559-11.914,26.559-26.556
					c0-2.269-0.295-4.475-0.832-6.593H479.988C479.974,485.291,479.96,485.684,479.96,486.079z"/>
			</g>
			<g>
				<polygon fill="#FBCF16" points="574.562,487.285 562.042,487.285 566.753,469.663 535.321,469.663 527.132,500.322 
					538.5,500.322 526.761,544.271 				"/>
				<polygon fill="#FFE373" points="566.753,469.663 562.548,469.663 528.183,542.549 528.199,542.557 574.562,487.285 
					562.042,487.285 				"/>
			</g>
		</g>
		<g>
			<g>
				<path fill="#A4D7E5" d="M900.466,464.424c-2.766-22.569-22.145-39.915-45.138-39.915c-18.06,0-34.43,10.798-41.642,27.161
					c-0.889-0.08-1.756-0.118-2.618-0.118c-17.624,0-31.963,14.342-31.963,31.966c0,17.627,14.339,31.966,31.963,31.966h79.127
					c14.646,0,26.559-11.913,26.559-26.559C916.754,478.082,910.305,468.524,900.466,464.424z"/>
				<path fill="#90C5D0" d="M779.105,483.518c0,17.627,14.339,31.966,31.963,31.966h79.127c14.646,0,26.559-11.913,26.559-26.559
					c0-2.266-0.295-4.473-0.831-6.59H779.135C779.12,482.729,779.105,483.121,779.105,483.518z"/>
			</g>
			<g>
				<polygon fill="#FBCF16" points="888.428,484.724 875.911,484.724 880.62,467.1 849.189,467.1 840.997,497.76 852.367,497.76 
					840.626,541.709 				"/>
				<polygon fill="#FFE373" points="880.62,467.1 876.417,467.1 842.05,539.986 842.065,539.994 888.428,484.724 875.911,484.724 
									"/>
			</g>
			<g>
				<path fill="#5F87C5" d="M829.713,531.91c-0.339-1.343-0.967-2.627-1.439-3.908c-0.484-1.315-0.968-2.628-1.452-3.943
					c-2.229,2.545-4.567,5.044-6.711,7.646c-2.195,2.667-2.035,6.167,0.33,7.576c2.307,1.377,5.945,0.3,7.993-2.353
					C829.637,535.369,830.117,533.475,829.713,531.91z"/>
				<path fill="#5F87C5" d="M813.622,550.042c-0.337-1.344-0.966-2.628-1.438-3.91c-0.484-1.315-0.969-2.629-1.455-3.941
					c-2.227,2.543-4.564,5.043-6.708,7.645c-2.199,2.668-2.035,6.165,0.328,7.576c2.307,1.376,5.945,0.299,7.993-2.353
					C813.546,553.499,814.026,551.605,813.622,550.042z"/>
				<path fill="#5F87C5" d="M835.331,550.042c-0.336-1.344-0.967-2.628-1.438-3.91c-0.485-1.315-0.969-2.629-1.454-3.941
					c-2.228,2.543-4.565,5.043-6.709,7.645c-2.198,2.668-2.035,6.165,0.328,7.576c2.306,1.376,5.947,0.299,7.993-2.353
					C835.255,553.499,835.735,551.605,835.331,550.042z"/>
			</g>
		</g>
		<g>
			<g>
				<path fill="#A4D7E5" d="M1195.203,463.305c-2.768-22.568-22.144-39.916-45.137-39.916c-18.058,0-34.431,10.799-41.643,27.161
					c-0.886-0.078-1.755-0.116-2.617-0.116c-17.624,0-31.96,14.34-31.96,31.966c0,17.625,14.336,31.964,31.96,31.964h79.127
					c14.644,0,26.562-11.913,26.562-26.558C1211.495,476.963,1205.04,467.406,1195.203,463.305z"/>
				<path fill="#90C5D0" d="M1073.847,482.399c0,17.625,14.336,31.964,31.96,31.964h79.127c14.644,0,26.562-11.913,26.562-26.558
					c0-2.269-0.301-4.473-0.838-6.59h-136.785C1073.861,481.609,1073.847,482.002,1073.847,482.399z"/>
			</g>
			<g>
				<g>
					<rect x="1110.685" y="523.619" fill="#FFFFFF" width="5.193" height="8.129"/>
					
						<rect x="1102.074" y="528.902" transform="matrix(0.8661 0.4999 -0.4999 0.8661 413.8099 -481.7708)" fill="#FFFFFF" width="8.131" height="5.194"/>
					
						<rect x="1103.276" y="535.526" transform="matrix(0.5002 0.8659 -0.8659 0.5002 1019.9769 -687.8998)" fill="#FFFFFF" width="5.193" height="8.133"/>
					<rect x="1110.153" y="539.805" fill="#FFFFFF" width="5.19" height="8.131"/>
					
						<rect x="1115.826" y="537.457" transform="matrix(0.8662 0.4997 -0.4997 0.8662 419.7589 -487.3846)" fill="#FFFFFF" width="8.131" height="5.192"/>
					
						<rect x="1117.562" y="527.895" transform="matrix(0.4997 0.8662 -0.8662 0.4997 1021.1974 -704.1384)" fill="#FFFFFF" width="5.191" height="8.132"/>
				</g>
				<g>
					<rect x="1140.603" y="523.619" fill="#FFFFFF" width="5.193" height="8.129"/>
					
						<rect x="1131.991" y="528.902" transform="matrix(0.8662 0.4998 -0.4998 0.8662 417.6927 -496.6401)" fill="#FFFFFF" width="8.132" height="5.195"/>
					
						<rect x="1133.195" y="535.526" transform="matrix(0.5002 0.8659 -0.8659 0.5002 1034.9307 -713.8068)" fill="#FFFFFF" width="5.193" height="8.132"/>
					<rect x="1140.068" y="539.805" fill="#FFFFFF" width="5.196" height="8.131"/>
					
						<rect x="1145.741" y="537.457" transform="matrix(0.8661 0.4998 -0.4998 0.8661 423.825 -502.3783)" fill="#FFFFFF" width="8.13" height="5.192"/>
					
						<rect x="1147.479" y="527.896" transform="matrix(0.4998 0.8661 -0.8661 0.4998 1035.9592 -730.0339)" fill="#FFFFFF" width="5.191" height="8.129"/>
				</g>
				<g>
					<rect x="1170.519" y="523.619" fill="#FFFFFF" width="5.195" height="8.129"/>
					<polygon fill="#FFFFFF" points="1168.196,535.78 1161.157,531.716 1163.753,527.218 1170.798,531.285 					"/>
					
						<rect x="1163.111" y="535.528" transform="matrix(0.5002 0.8659 -0.8659 0.5002 1049.8833 -739.712)" fill="#FFFFFF" width="5.193" height="8.129"/>
					<rect x="1169.987" y="539.805" fill="#FFFFFF" width="5.193" height="8.131"/>
					
						<rect x="1175.66" y="537.457" transform="matrix(0.8661 0.4998 -0.4998 0.8661 427.8933 -517.3766)" fill="#FFFFFF" width="8.129" height="5.192"/>
					
						<rect x="1177.396" y="527.896" transform="matrix(0.5001 0.866 -0.866 0.5001 1050.5033 -755.9042)" fill="#FFFFFF" width="5.192" height="8.131"/>
				</g>
			</g>
		</g>
		<g>
			<g>
				<path fill="#A4D7E5" d="M1488.898,463.076c-2.767-22.571-22.144-39.916-45.138-39.916c-18.057,0-34.43,10.797-41.643,27.159
					c-0.885-0.076-1.754-0.117-2.613-0.117c-17.625,0-31.964,14.341-31.964,31.967s14.339,31.964,31.964,31.964h79.125
					c14.645,0,26.558-11.912,26.558-26.559C1505.188,476.733,1498.736,467.176,1488.898,463.076z"/>
				<path fill="#90C5D0" d="M1367.541,482.169c0,17.626,14.339,31.964,31.964,31.964h79.125c14.645,0,26.558-11.912,26.558-26.559
					c0-2.266-0.298-4.471-0.831-6.589h-136.788C1367.554,481.379,1367.541,481.771,1367.541,482.169z"/>
			</g>
			<g>
				<path fill="#FFFFFF" d="M1450.526,536.646c-1.546,0-2.797-1.252-2.797-2.795v-50.896c0-1.545,1.251-2.798,2.797-2.798
					c1.544,0,2.795,1.253,2.795,2.798v50.896C1453.321,535.395,1452.07,536.646,1450.526,536.646z"/>
				<path fill="#FFFFFF" d="M1472.645,523.874c-0.473,0-0.956-0.12-1.396-0.374l-44.077-25.447c-1.338-0.773-1.796-2.482-1.022-3.82
					c0.771-1.338,2.482-1.795,3.82-1.022l44.076,25.446c1.335,0.771,1.796,2.483,1.022,3.821
					C1474.549,523.374,1473.611,523.874,1472.645,523.874z"/>
				<path fill="#FFFFFF" d="M1428.573,523.777c-0.967,0-1.907-0.501-2.424-1.397c-0.773-1.338-0.315-3.049,1.022-3.821
					l44.077-25.445c1.337-0.773,3.049-0.315,3.819,1.022c0.773,1.338,0.313,3.047-1.022,3.82l-44.076,25.446
					C1429.532,523.657,1429.046,523.777,1428.573,523.777z"/>
				<path fill="#FFFFFF" d="M1450.491,494.763l-9.863-6.966c-1.262-0.891-1.561-2.636-0.672-3.897
					c0.893-1.262,2.638-1.56,3.899-0.672l6.706,4.738l7.05-4.77c1.281-0.866,3.02-0.529,3.884,0.75
					c0.865,1.279,0.531,3.019-0.75,3.882L1450.491,494.763z"/>
				<path fill="#FFFFFF" d="M1426.646,506.879c-1.059,0-2.07-0.602-2.543-1.627c-0.644-1.401-0.033-3.062,1.367-3.709l7.457-3.439
					l-0.603-8.492c-0.112-1.538,1.052-2.876,2.59-2.985c1.53-0.124,2.876,1.048,2.987,2.591l0.878,12.348l-10.964,5.057
					C1427.435,506.796,1427.039,506.879,1426.646,506.879z"/>
				<path fill="#FFFFFF" d="M1434.929,529.672c-0.084,0-0.174-0.005-0.257-0.012c-1.539-0.142-2.67-1.504-2.53-3.04l0.75-8.175
					l-7.654-3.724c-1.39-0.675-1.97-2.35-1.295-3.737c0.674-1.391,2.35-1.967,3.738-1.291l11.135,5.412l-1.104,12.025
					C1437.576,528.581,1436.36,529.672,1434.929,529.672z"/>
				<path fill="#FFFFFF" d="M1441.872,533.896c-0.896,0-1.778-0.431-2.316-1.229c-0.865-1.279-0.53-3.02,0.747-3.884l10.257-6.933
					l9.859,6.965c1.265,0.891,1.562,2.636,0.669,3.897c-0.89,1.261-2.632,1.561-3.894,0.671l-6.703-4.736l-7.055,4.768
					C1442.955,533.739,1442.411,533.896,1441.872,533.896z"/>
				<path fill="#FFFFFF" d="M1465.934,529.993c-1.455,0-2.685-1.125-2.786-2.598l-0.879-12.349l10.967-5.057
					c1.4-0.645,3.062-0.033,3.707,1.369c0.648,1.4,0.035,3.062-1.368,3.709l-7.452,3.438l0.604,8.492
					c0.111,1.539-1.051,2.877-2.59,2.986C1466.068,529.991,1466.002,529.993,1465.934,529.993z"/>
				<path fill="#FFFFFF" d="M1474.587,507.201c-0.409,0-0.825-0.092-1.221-0.283l-11.132-5.414l1.103-12.023
					c0.142-1.537,1.508-2.67,3.042-2.529c1.538,0.143,2.669,1.502,2.527,3.039l-0.748,8.176l7.655,3.723
					c1.389,0.676,1.965,2.349,1.292,3.738C1476.62,506.622,1475.625,507.201,1474.587,507.201z"/>
			</g>
			<g>
				<rect x="1411.47" y="523.246" fill="#FFFFFF" width="4.83" height="7.563"/>
				
					<rect x="1403.46" y="528.162" transform="matrix(0.8658 0.5004 -0.5004 0.8658 454.3261 -632.949)" fill="#FFFFFF" width="7.563" height="4.83"/>
				
					<rect x="1404.578" y="534.324" transform="matrix(0.5002 0.8659 -0.8659 0.5002 1169.236 -949.3958)" fill="#FFFFFF" width="4.832" height="7.565"/>
				<rect x="1410.974" y="538.302" fill="#FFFFFF" width="4.833" height="7.563"/>
				
					<rect x="1416.251" y="536.12" transform="matrix(0.866 0.5 -0.5 0.866 459.5338 -637.8809)" fill="#FFFFFF" width="7.564" height="4.831"/>
				
					<rect x="1417.866" y="527.225" transform="matrix(0.5006 0.8657 -0.8657 0.5006 1169.0563 -964.3376)" fill="#FFFFFF" width="4.833" height="7.564"/>
			</g>
		</g>
		<g>
			<g>
				<path fill="#A4D7E5" d="M904.859,748.161c-2.767-22.572-22.145-39.917-45.138-39.917c-18.059,0-34.432,10.795-41.643,27.161
					c-0.887-0.08-1.756-0.118-2.616-0.118c-17.624,0-31.964,14.341-31.964,31.967c0,17.624,14.34,31.965,31.964,31.965h79.127
					c14.646,0,26.56-11.913,26.56-26.558C921.149,761.819,914.698,752.261,904.859,748.161z"/>
				<path fill="#90C5D0" d="M783.499,767.254c0,17.624,14.34,31.965,31.964,31.965h79.127c14.646,0,26.56-11.913,26.56-26.558
					c0-2.269-0.295-4.473-0.834-6.591H783.528C783.515,766.466,783.499,766.859,783.499,767.254z"/>
			</g>
			<g>
				<g>
					<path fill="#FFFFFF" d="M846.796,774.23h-82.657v-6.492h82.657c10.921,0,19.804-8.885,19.804-19.805
						c0-8.38-6.813-15.197-15.192-15.197c-6.347,0-11.509,5.164-11.509,11.507c0,4.72,3.839,8.559,8.558,8.559
						c3.418,0,6.196-2.78,6.196-6.195h6.492c0,6.993-5.693,12.688-12.688,12.688c-8.298,0-15.048-6.753-15.048-15.051
						c0-9.923,8.072-17.999,17.999-17.999c11.957,0,21.683,9.73,21.683,21.689C873.09,762.434,861.296,774.23,846.796,774.23z"/>
				</g>
				<g>
					<path fill="#FFFFFF" d="M853.187,800.541h-6.49c0-7.604-6.188-13.789-13.792-13.789h-76.492v-6.49h76.492
						C844.09,780.262,853.187,789.357,853.187,800.541z"/>
				</g>
				<rect x="771.499" y="755.062" fill="#FFFFFF" width="43.939" height="6.49"/>
			</g>
		</g>
		<g>
			<path fill="#FBCF16" d="M1114.356,740.131c0-13.968-11.362-25.331-25.33-25.331c-13.965,0-25.328,11.363-25.328,25.331
				c0,13.967,11.363,25.328,25.328,25.328C1102.994,765.459,1114.356,754.098,1114.356,740.131z M1130.073,742.944v-5.629h-8.68
				v5.629H1130.073z M1113.902,719.234l6.139-6.135l-3.98-3.981l-6.137,6.136L1113.902,719.234z M1086.213,699.087v8.679h5.629
				v-8.679H1086.213z M1061.994,709.118l-3.98,3.978l6.137,6.139l3.98-3.98L1061.994,709.118z M1047.984,737.315v5.629h8.68v-5.629
				H1047.984z M1064.15,761.025l-6.137,6.137l3.98,3.98l6.137-6.136L1064.15,761.025z M1091.842,772.496h-5.629v8.678h5.629V772.496
				z M1113.904,761.025l-3.98,3.981l6.137,6.136l3.98-3.98L1113.904,761.025z"/>
			<g>
				
					<rect x="1110.643" y="763.27" transform="matrix(0.7071 0.7071 -0.7071 0.7071 868.2743 -564.0306)" fill="#E7C01F" width="8.679" height="5.63"/>
				<path fill="#E7C01F" d="M1114.352,740.285h-50.648c0.079,13.895,11.409,25.174,25.323,25.174
					C1102.942,765.459,1114.269,754.18,1114.352,740.285z"/>
				
					<rect x="1058.733" y="763.269" transform="matrix(0.7071 -0.7071 0.7071 0.7071 -230.3364 976.0864)" fill="#E7C01F" width="8.679" height="5.629"/>
				<rect x="1121.394" y="740.285" fill="#E7C01F" width="8.68" height="2.659"/>
				<rect x="1086.213" y="772.496" fill="#E7C01F" width="5.629" height="8.678"/>
				<rect x="1047.984" y="740.285" fill="#E7C01F" width="8.68" height="2.659"/>
			</g>
			<path fill="#FFFFFF" d="M1204.371,753.927c-2.935-23.944-23.494-42.349-47.891-42.349c-19.158,0-36.531,11.457-44.182,28.816
				c-0.94-0.083-1.86-0.123-2.774-0.123c-18.701,0-33.914,15.213-33.914,33.914c0,18.702,15.213,33.914,33.914,33.914h83.952
				c15.539,0,28.179-12.639,28.179-28.176C1221.655,768.417,1214.811,758.278,1204.371,753.927z"/>
			<path fill="#D6EEF4" d="M1075.61,774.186c0,18.702,15.213,33.914,33.914,33.914h83.952c15.539,0,28.179-12.639,28.179-28.176
				c0-2.407-0.316-4.745-0.886-6.993h-145.128C1075.628,773.35,1075.61,773.765,1075.61,774.186z"/>
			<g>
				<path fill="#5F87C5" d="M1138.613,784.66h-82.653v-6.493h82.653c10.921,0,19.808-8.886,19.808-19.805
					c0-8.376-6.818-15.195-15.195-15.195c-6.349,0-11.509,5.163-11.509,11.508c0,4.718,3.838,8.555,8.556,8.555
					c3.416,0,6.197-2.777,6.197-6.193h6.49c0,6.994-5.688,12.687-12.688,12.687c-8.299,0-15.046-6.75-15.046-15.048
					c0-9.923,8.071-17.999,17.999-17.999c11.955,0,21.685,9.729,21.685,21.687C1164.91,772.861,1153.113,784.66,1138.613,784.66z"/>
			</g>
			<g>
				<path fill="#5F87C5" d="M1145.003,810.969h-6.49c0-7.604-6.188-13.786-13.79-13.786h-76.491v-6.491h76.491
					C1135.905,790.691,1145.003,799.787,1145.003,810.969z"/>
			</g>
			<rect x="1063.319" y="765.49" fill="#5F87C5" width="43.938" height="6.491"/>
		</g>
		<g>
			<path fill="#FFFFFF" d="M1485.383,715.266c-0.091-3.545-0.595-6.996-0.854-9.576c-0.362-4.018-0.569-6.313-0.569-6.313
				l-84.949,16.127c0,0,1.536,2.046,4.223,5.621c0.966,1.263,2.188,2.452,3.539,4.302c0.662,0.946,1.373,1.955,2.119,3.019
				c0.648,1.052,1.334,2.161,2.047,3.313c0.615,1.157,1.262,2.358,1.925,3.604c0.278,0.619,0.553,1.249,0.835,1.889
				c0.298,0.65,0.603,1.314,0.801,1.975c1.071,2.684,1.689,5.542,2.059,8.736c0.353,3.186,0.154,6.717-0.523,10.682
				c-0.662,3.955-1.848,8.335-3.115,13.048c-1.266,4.708-2.561,9.752-3.301,14.858c-0.787,5.102-0.902,10.272-0.36,15.123
				c0.173,2.426,0.745,4.785,1.181,7.057c0.295,1.133,0.638,2.241,0.945,3.331c0.308,1.091,0.625,2.158,1.061,3.188
				c0.793,2.073,1.527,4.069,2.494,5.934c0.453,0.931,0.898,1.846,1.336,2.746c0.442,0.895,0.979,1.744,1.452,2.584
				c1.838,3.371,3.952,6.298,5.681,8.891c1.945,2.539,3.564,4.735,5.021,6.501c2.967,3.485,4.664,5.476,4.664,5.476
				s-0.384-2.277-1.057-6.262c-0.291-1.986-0.482-4.408-0.763-7.135c-0.056-2.753-0.267-5.813,0.014-9.116
				c0.059-0.819,0.054-1.657,0.167-2.507c0.117-0.841,0.237-1.701,0.356-2.574c0.176-1.735,0.626-3.504,1.042-5.291
				c0.174-0.896,0.461-1.788,0.767-2.683c0.295-0.89,0.59-1.785,0.893-2.694c0.791-1.781,1.441-3.579,2.456-5.334
				c1.854-3.539,4.187-6.962,7.07-10.356c2.849-3.403,6.158-6.798,9.771-10.441c3.602-3.638,7.508-7.559,11.292-11.92
				c3.769-4.348,7.405-9.149,10.297-14.231c2.877-5.058,5.242-10.301,6.702-15.353c0.434-1.272,0.739-2.515,1.024-3.744
				c0.284-1.238,0.569-2.457,0.845-3.658c0.395-2.369,0.76-4.694,1.018-6.913c0.15-2.196,0.292-4.304,0.427-6.307
				C1485.403,718.888,1485.392,717.021,1485.383,715.266z"/>
			<path fill="#2C5871" d="M1396.747,707.165c-2.065,0-3.904-1.468-4.303-3.57c-0.452-2.38,1.111-4.677,3.492-5.127l77.51-14.718
				c2.385-0.462,4.68,1.109,5.13,3.49c0.452,2.383-1.11,4.678-3.49,5.129l-77.515,14.718
				C1397.297,707.141,1397.021,707.165,1396.747,707.165z"/>
			<circle fill="#D6EEF4" cx="1399.012" cy="744.259" r="5.019"/>
			<circle fill="#D6EEF4" cx="1497.559" cy="708.594" r="5.019"/>
			<path fill="#D6EEF4" d="M1391.3,724.757c0,2.77-2.246,5.021-5.018,5.021c-2.774,0-5.021-2.251-5.021-5.021
				c0-2.772,2.246-5.021,5.021-5.021C1389.054,719.736,1391.3,721.984,1391.3,724.757z"/>
			<path fill="#D6EEF4" d="M1502.577,734.016c0,2.771-2.247,5.018-5.021,5.018c-2.771,0-5.016-2.247-5.016-5.018
				c0-2.774,2.245-5.021,5.016-5.021C1500.33,728.995,1502.577,731.241,1502.577,734.016z"/>
			<path fill="#D6EEF4" d="M1431.273,833.982c-0.056-2.753-0.267-5.813,0.014-9.116c0.059-0.819,0.054-1.657,0.167-2.507
				c0.117-0.841,0.237-1.701,0.356-2.574c0.176-1.735,0.626-3.504,1.042-5.291c0.174-0.896,0.461-1.788,0.767-2.683
				c0.295-0.89,0.59-1.785,0.893-2.694c0.791-1.781,1.441-3.579,2.456-5.334c1.854-3.539,4.187-6.962,7.07-10.356
				c2.849-3.403,6.158-6.798,9.771-10.441c3.602-3.638,7.508-7.559,11.292-11.92c3.769-4.348,7.405-9.149,10.297-14.231
				c2.877-5.058,5.242-10.301,6.702-15.353c0.434-1.272,0.739-2.515,1.024-3.744c0.284-1.238,0.569-2.457,0.845-3.658
				c0.395-2.369,0.76-4.694,1.018-6.913c0.15-2.196,0.292-4.304,0.427-6.307c-0.011-1.972-0.022-3.838-0.031-5.594
				c-0.091-3.545-0.595-6.996-0.854-9.576c-0.362-4.018-0.569-6.313-0.569-6.313l-45.473,8.635
				c3.331,19.822,4.473,40.246-3.33,55.279c-12.356,23.801-15.572,60.539-2.064,84.089c0,0-0.384-2.277-1.057-6.262
				C1431.745,839.131,1431.554,836.709,1431.273,833.982z"/>
			<g>
				<path fill="#2C5871" d="M1482.101,741.481c0.434-1.272,0.739-2.515,1.024-3.744c0.008-0.042,0.019-0.08,0.028-0.119
					l-28.735,5.455c-2.384,0.452-3.944,2.748-3.49,5.13c0.399,2.102,2.235,3.569,4.304,3.569c0.27,0,0.544-0.026,0.821-0.08
					l24.051-4.567C1480.866,745.233,1481.565,743.343,1482.101,741.481z"/>
				<path fill="#2C5871" d="M1484.529,705.689c-0.362-4.018-0.569-6.313-0.569-6.313l-71.844,13.64
					c-1.626,0.889-2.579,2.733-2.213,4.651c0.4,2.103,2.235,3.567,4.303,3.567c0.27,0,0.545-0.025,0.822-0.079l69.748-13.239
					C1484.684,707.125,1484.598,706.373,1484.529,705.689z"/>
				<path fill="#2C5871" d="M1485.414,720.859c-0.005-0.968-0.011-1.913-0.013-2.83l-51.497,9.774
					c-2.381,0.453-3.944,2.749-3.492,5.13c0.401,2.104,2.237,3.568,4.304,3.568c0.271,0,0.552-0.023,0.826-0.075l49.452-9.392
					C1485.14,724.887,1485.279,722.823,1485.414,720.859z"/>
			</g>
		</g>
	</g>
</g>
<g id="Vexels">
	<g>
		<g>
			<path fill="#0E4467" d="M854.857,921.283l-0.921-1.993c-0.453-0.956-1.655-1.402-2.668-0.991
				c-1.094,0.374-1.582,1.506-1.131,2.431l1.035,2.242l8.178,17.747c0.078,0.069,0.154,0.204,0.188,0.272
				c0,0.034,0.041,0.034,0.041,0.034c0.037,0.069,0.113,0.138,0.188,0.207c0,0.067,0.037,0.067,0.037,0.101
				c0.111,0.071,0.188,0.103,0.26,0.174c0.039,0,0.039,0,0.039,0c0.115,0.067,0.265,0.169,0.341,0.203c0.036,0,0.036,0,0.036,0
				s0.039,0,0.039,0.035c0.076,0,0.226,0.036,0.301,0.065c0.034,0,0.075,0,0.075,0c0.111,0.038,0.263,0.038,0.378,0.038
				c0.111,0,0.225,0,0.376-0.038c0.036,0,0.072,0,0.072,0c0.114-0.029,0.188-0.065,0.304-0.065c0.038-0.035,0.038-0.035,0.072-0.035
				c0.116-0.034,0.228-0.136,0.303-0.17c0.074-0.033,0.074-0.033,0.074-0.033c0.075-0.071,0.15-0.103,0.225-0.174
				c0.04-0.033,0.04-0.033,0.076-0.101c0.039-0.069,0.15-0.138,0.187-0.207c0.038,0,0.038,0,0.038-0.034
				c0.076-0.068,0.117-0.203,0.154-0.272l0.349-0.755l-2.229-4.826L854.857,921.283z M934.634,921.14
				c0.639-0.856,0.49-2.018-0.447-2.602c-0.94-0.65-2.185-0.479-2.896,0.411l-4.287,5.347l2.555,3.122L934.634,921.14z
				 M871.312,918.299c-1.015-0.411-2.255,0.035-2.708,0.991l-5.446,11.771l2.236,4.833l7.046-15.165
				C872.853,919.805,872.366,918.673,871.312,918.299z M822.767,911.064c-0.885-0.885-2.061-1.371-3.311-1.371
				c-1.251,0-2.425,0.486-3.309,1.371l-15.151,15.154c-1.823,1.826-1.823,4.791,0,6.613l15.151,15.154
				c0.884,0.885,2.058,1.37,3.309,1.37c1.25,0,2.426-0.485,3.311-1.366l15.15-15.158c0.887-0.887,1.373-2.055,1.373-3.309
				c0-1.244-0.486-2.422-1.373-3.305L822.767,911.064z M835.566,930.885l-14.751,14.75c-0.728,0.726-1.992,0.726-2.714,0
				l-14.752-14.75c-0.749-0.75-0.749-1.969-0.003-2.717l14.755-14.752c0.012-0.013,0.025-0.024,0.038-0.033v12.223
				c-0.601,0.203-1.153,0.524-1.615,0.988c-0.782,0.781-1.214,1.823-1.214,2.93c0,1.109,0.432,2.153,1.214,2.931
				c0.782,0.787,1.825,1.219,2.93,1.219c1.109,0,2.152-0.429,2.936-1.219c1.615-1.612,1.615-4.244,0-5.865
				c-0.46-0.462-1.015-0.78-1.616-0.983v-12.223c0.013,0.009,0.03,0.021,0.042,0.033l14.751,14.752
				c0.363,0.361,0.56,0.845,0.56,1.355C836.126,930.036,835.93,930.515,835.566,930.885z M927.492,929.97l-2.522-3.149l-6.351-7.871
				c-0.646-0.89-1.96-1.062-2.864-0.411c-0.939,0.584-1.125,1.745-0.486,2.602l7.144,8.83l-7.144,8.899
				c-0.639,0.82-0.453,2.021,0.486,2.602c0.339,0.239,0.754,0.378,1.204,0.378c0.641,0,1.24-0.309,1.66-0.791l6.351-7.904
				l6.785,8.49c0.392,0.487,1.011,0.74,1.589,0.74c0.429,0,0.931-0.197,1.29-0.485c0.854-0.678,0.92-1.908,0.239-2.756
				L927.492,929.97z M894.234,917.928c-6.08,0-11.032,5.378-11.032,11.985c0,6.558,4.952,11.896,11.032,11.896
				c3.735,0,7.179-2.038,9.207-5.456c0.489-0.882,0.241-1.98-0.618-2.635c-0.278-0.18-0.606-0.274-0.94-0.274
				c-0.651,0-1.229,0.349-1.543,0.919c-1.274,2.245-3.613,3.636-6.105,3.636c-3.688,0-6.749-2.936-7.295-6.908h16.411
				c1.026,0,1.827-0.797,1.827-1.813l-0.001-0.243C904.71,922.705,900.006,917.928,894.234,917.928z M887.207,927.328
				c0.995-3.367,3.756-5.59,7.027-5.59c3.208,0,5.982,2.272,6.914,5.59H887.207z M988.259,937.939
				c-0.038-0.001-2.826-0.001-2.867-0.001c-1.063,0-2.301-0.61-2.301-2.328v-19.062c0-1.121-0.915-2.029-2.039-2.029
				c-1.084,0-2.032,0.948-2.032,2.029v19.062c0,3.769,2.501,6.2,6.372,6.2c0.049,0,2.847,0,2.894-0.002
				c1.003-0.071,1.795-0.913,1.795-1.934C990.08,938.849,989.272,937.998,988.259,937.939z M1019.38,931.649
				c-0.865-1.271-2.219-2.159-3.762-2.842c-1.503-0.651-3.271-1.095-5.189-1.437h-0.076c-2.029-0.343-3.721-0.895-4.699-1.51
				c-0.488-0.304-0.829-0.614-1.019-0.89c-0.186-0.27-0.262-0.548-0.262-0.954c0-0.722,0.412-1.475,1.433-2.158
				c1.014-0.684,2.518-1.164,4.209-1.164c2.294,0,4.137,1.025,6.056,2.188c0.901,0.547,2.105,0.308,2.668-0.512
				c0.603-0.787,0.342-1.884-0.523-2.433c-1.919-1.126-4.591-2.736-8.2-2.736c-2.445,0-4.735,0.65-6.506,1.813
				c-1.731,1.169-3.009,2.944-3.009,5.001c0,1.024,0.301,1.984,0.865,2.803c0.826,1.199,2.067,2.057,3.493,2.67
				c1.43,0.615,3.09,1.029,4.854,1.335h0.079c2.217,0.378,4.061,0.96,5.151,1.608c0.563,0.344,0.901,0.685,1.128,1.027
				c0.226,0.344,0.337,0.649,0.337,1.095c0,0.856-0.486,1.712-1.617,2.465c-1.127,0.753-2.818,1.269-4.699,1.269
				c-2.671,0.033-5.53-1.404-7.185-2.636c-0.828-0.62-2.069-0.516-2.745,0.235c-0.641,0.755-0.525,1.885,0.303,2.498
				c2.145,1.545,5.563,3.395,9.627,3.424c2.67,0,5.114-0.716,6.959-1.947c1.878-1.236,3.231-3.114,3.231-5.308
				C1020.281,933.495,1019.945,932.471,1019.38,931.649z M957.036,917.928c-6.082,0-11.031,5.378-11.031,11.985
				c0,6.558,4.949,11.896,11.031,11.896c3.74,0,7.176-2.038,9.209-5.456c0.488-0.882,0.24-1.98-0.618-2.635
				c-0.28-0.18-0.606-0.274-0.942-0.274c-0.648,0-1.228,0.349-1.542,0.919c-1.273,2.245-3.613,3.636-6.106,3.636
				c-3.689,0-6.748-2.936-7.297-6.908h16.414c1.025,0,1.828-0.797,1.828-1.813v-0.243
				C967.514,922.705,962.81,917.928,957.036,917.928z M950.007,927.328c0.997-3.367,3.759-5.59,7.029-5.59
				c3.213,0,5.982,2.272,6.914,5.59H950.007z"/>
		</g>
		<g>
			<path fill="#0E4467" d="M688.337,931.114c0,0.712,0.007,1.357,0.021,1.936c0.016,0.578,0.076,1.146,0.188,1.705h-1.13
				l-0.416-1.485h-0.085c-0.278,0.488-0.683,0.893-1.213,1.214c-0.53,0.319-1.15,0.48-1.861,0.48c-1.396,0-2.43-0.439-3.105-1.317
				c-0.676-0.879-1.016-2.252-1.016-4.122c0-1.784,0.422-3.139,1.266-4.067c0.843-0.925,2.005-1.391,3.483-1.391
				c0.516,0,0.923,0.028,1.223,0.083c0.301,0.057,0.624,0.146,0.973,0.273v-4.353h1.674V931.114z M684.111,933.5
				c0.712,0,1.276-0.186,1.695-0.555c0.417-0.369,0.703-0.93,0.856-1.684v-5.188c-0.251-0.195-0.536-0.334-0.856-0.418
				c-0.322-0.085-0.747-0.125-1.276-0.125c-0.961,0-1.716,0.316-2.26,0.949c-0.543,0.637-0.814,1.65-0.814,3.044
				c0,0.573,0.045,1.102,0.136,1.59c0.089,0.489,0.24,0.907,0.448,1.256c0.211,0.35,0.485,0.625,0.827,0.827
				C683.209,933.398,683.624,933.5,684.111,933.5z"/>
			<path fill="#0E4467" d="M699.193,933.877c-0.419,0.334-0.946,0.6-1.58,0.794c-0.636,0.195-1.306,0.293-2.018,0.293
				c-0.796,0-1.486-0.129-2.072-0.387c-0.585-0.259-1.066-0.628-1.442-1.109c-0.377-0.48-0.656-1.057-0.837-1.726
				c-0.181-0.668-0.272-1.422-0.272-2.259c0-1.785,0.397-3.145,1.193-4.078c0.793-0.935,1.931-1.402,3.408-1.402
				c0.475,0,0.949,0.054,1.424,0.157c0.473,0.105,0.899,0.303,1.275,0.597c0.377,0.293,0.682,0.709,0.921,1.245
				c0.236,0.537,0.354,1.242,0.354,2.122c0,0.46-0.042,0.969-0.125,1.528h-6.714c0,0.612,0.062,1.156,0.188,1.631
				c0.124,0.475,0.32,0.875,0.584,1.201c0.266,0.329,0.611,0.58,1.036,0.754c0.425,0.175,0.944,0.262,1.558,0.262
				c0.475,0,0.948-0.085,1.423-0.251c0.475-0.168,0.83-0.363,1.067-0.586L699.193,933.877z M695.596,925.468
				c-0.824,0-1.483,0.216-1.979,0.647c-0.494,0.435-0.79,1.173-0.888,2.219h5.188c0-1.061-0.204-1.803-0.608-2.228
				C696.904,925.681,696.333,925.468,695.596,925.468z"/>
			<path fill="#0E4467" d="M706.786,931.869c0-0.42-0.127-0.747-0.377-0.983c-0.252-0.237-0.563-0.437-0.931-0.596
				c-0.371-0.162-0.775-0.314-1.214-0.462c-0.438-0.146-0.843-0.334-1.213-0.563c-0.371-0.231-0.68-0.527-0.931-0.89
				c-0.251-0.364-0.377-0.853-0.377-1.466c0-1.004,0.286-1.738,0.857-2.206c0.572-0.466,1.366-0.701,2.385-0.701
				c0.754,0,1.384,0.066,1.894,0.199c0.508,0.133,0.951,0.29,1.328,0.472l-0.397,1.38c-0.321-0.153-0.709-0.29-1.162-0.408
				c-0.452-0.119-0.937-0.178-1.453-0.178c-0.613,0-1.064,0.104-1.349,0.313c-0.286,0.209-0.43,0.572-0.43,1.087
				c0,0.363,0.126,0.646,0.378,0.849c0.249,0.201,0.56,0.383,0.931,0.544c0.369,0.158,0.774,0.315,1.213,0.47
				c0.439,0.153,0.844,0.354,1.213,0.607c0.37,0.251,0.68,0.567,0.932,0.952c0.249,0.382,0.375,0.887,0.375,1.516
				c0,0.446-0.072,0.864-0.219,1.255s-0.373,0.725-0.68,1.003c-0.308,0.28-0.688,0.499-1.141,0.66c-0.453,0.159-0.986,0.24-1.6,0.24
				c-0.795,0-1.473-0.077-2.029-0.23c-0.558-0.153-1.025-0.334-1.4-0.543l0.501-1.423c0.319,0.182,0.739,0.35,1.255,0.502
				c0.517,0.153,1.039,0.23,1.568,0.23c0.6,0,1.096-0.119,1.485-0.355C706.59,932.906,706.786,932.481,706.786,931.869z"/>
			<path fill="#0E4467" d="M710.989,921.075c0-0.32,0.107-0.596,0.324-0.826c0.215-0.231,0.49-0.345,0.826-0.345
				c0.334,0,0.621,0.113,0.856,0.345c0.237,0.23,0.355,0.506,0.355,0.826s-0.118,0.586-0.355,0.794
				c-0.235,0.21-0.522,0.314-0.856,0.314c-0.336,0-0.611-0.104-0.826-0.314C711.097,921.661,710.989,921.396,710.989,921.075z
				 M711.344,924.254h1.674v10.458h-1.674V924.254z"/>
			<path fill="#0E4467" d="M724.605,935.195c0,1.351-0.358,2.349-1.077,2.989c-0.719,0.642-1.782,0.963-3.189,0.963
				c-0.837,0-1.509-0.053-2.02-0.158c-0.509-0.104-0.944-0.24-1.307-0.407l0.438-1.422c0.321,0.125,0.677,0.244,1.068,0.356
				c0.389,0.111,0.898,0.166,1.526,0.166c0.586,0,1.063-0.053,1.433-0.156c0.368-0.104,0.665-0.28,0.888-0.522
				c0.223-0.246,0.377-0.559,0.461-0.941c0.083-0.385,0.126-0.841,0.126-1.371v-1.004h-0.083c-0.281,0.404-0.636,0.716-1.068,0.932
				c-0.432,0.216-0.997,0.323-1.693,0.323c-1.41,0-2.443-0.438-3.106-1.316c-0.663-0.879-0.993-2.246-0.993-4.102
				c0-1.784,0.425-3.139,1.275-4.067c0.852-0.925,2.105-1.391,3.765-1.391c0.796,0,1.476,0.063,2.039,0.188
				c0.565,0.127,1.07,0.272,1.518,0.44V935.195z M720.4,933.479c0.711,0,1.269-0.177,1.674-0.533c0.403-0.355,0.69-0.91,0.857-1.662
				v-5.357c-0.558-0.263-1.269-0.395-2.132-0.395c-0.95,0-1.696,0.32-2.239,0.961c-0.544,0.641-0.816,1.646-0.816,3.012
				c0,0.586,0.048,1.122,0.147,1.61c0.097,0.489,0.25,0.907,0.461,1.256c0.208,0.35,0.479,0.62,0.814,0.815
				S719.913,933.479,720.4,933.479z"/>
			<path fill="#0E4467" d="M734.54,934.712v-5.961c0-1.088-0.157-1.906-0.47-2.456c-0.315-0.552-0.89-0.827-1.728-0.827
				c-0.739,0-1.349,0.199-1.829,0.598c-0.481,0.396-0.82,0.894-1.015,1.493v7.153h-1.674v-10.458h1.172l0.314,1.277h0.083
				c0.334-0.448,0.785-0.813,1.35-1.099s1.237-0.43,2.019-0.43c0.572,0,1.073,0.066,1.506,0.199s0.79,0.365,1.077,0.7
				c0.284,0.335,0.501,0.786,0.649,1.35c0.145,0.565,0.218,1.279,0.218,2.145v6.315H734.54z"/>
			<path fill="#0E4467" d="M746.902,933.877c-0.419,0.334-0.945,0.6-1.579,0.794c-0.635,0.195-1.308,0.293-2.018,0.293
				c-0.796,0-1.486-0.129-2.071-0.387c-0.587-0.259-1.067-0.628-1.444-1.109c-0.375-0.48-0.656-1.057-0.836-1.726
				c-0.182-0.668-0.271-1.422-0.271-2.259c0-1.785,0.396-3.145,1.193-4.078c0.792-0.935,1.93-1.402,3.407-1.402
				c0.474,0,0.947,0.054,1.422,0.157c0.475,0.105,0.9,0.303,1.277,0.597c0.375,0.293,0.683,0.709,0.92,1.245
				c0.235,0.537,0.356,1.242,0.356,2.122c0,0.46-0.043,0.969-0.127,1.528h-6.715c0,0.612,0.063,1.156,0.189,1.631
				c0.125,0.475,0.319,0.875,0.585,1.201c0.266,0.329,0.61,0.58,1.036,0.754c0.425,0.175,0.944,0.262,1.558,0.262
				c0.475,0,0.948-0.085,1.423-0.251c0.474-0.168,0.83-0.363,1.067-0.586L746.902,933.877z M743.306,925.468
				c-0.824,0-1.483,0.216-1.979,0.647c-0.494,0.435-0.791,1.173-0.888,2.219h5.187c0-1.061-0.202-1.803-0.605-2.228
				C744.615,925.681,744.044,925.468,743.306,925.468z"/>
			<path fill="#0E4467" d="M757.925,931.114c0,0.712,0.007,1.357,0.021,1.936c0.014,0.578,0.076,1.146,0.188,1.705h-1.129
				l-0.419-1.485h-0.084c-0.278,0.488-0.683,0.893-1.212,1.214c-0.53,0.319-1.15,0.48-1.863,0.48c-1.393,0-2.429-0.439-3.105-1.317
				c-0.676-0.879-1.014-2.252-1.014-4.122c0-1.784,0.421-3.139,1.266-4.067c0.844-0.925,2.003-1.391,3.48-1.391
				c0.517,0,0.926,0.028,1.226,0.083c0.299,0.057,0.623,0.146,0.973,0.273v-4.353h1.673V931.114z M753.7,933.5
				c0.711,0,1.275-0.186,1.694-0.555c0.418-0.369,0.703-0.93,0.857-1.684v-5.188c-0.252-0.195-0.537-0.334-0.857-0.418
				c-0.321-0.085-0.746-0.125-1.276-0.125c-0.963,0-1.715,0.316-2.258,0.949c-0.545,0.637-0.817,1.65-0.817,3.044
				c0,0.573,0.047,1.102,0.136,1.59c0.091,0.489,0.241,0.907,0.451,1.256c0.207,0.35,0.484,0.625,0.825,0.827
				C752.797,933.398,753.212,933.5,753.7,933.5z"/>
			<path fill="#0E4467" d="M766.731,920.07h1.673v5.208h0.085c0.319-0.402,0.727-0.717,1.223-0.939
				c0.494-0.223,1.034-0.336,1.621-0.336c1.352,0,2.367,0.433,3.043,1.297c0.676,0.865,1.015,2.204,1.015,4.017
				c0,1.826-0.447,3.214-1.339,4.162c-0.893,0.948-2.148,1.423-3.765,1.423c-0.781,0-1.489-0.083-2.123-0.251
				c-0.635-0.167-1.112-0.349-1.433-0.545V920.07z M771.04,925.468c-0.697,0-1.263,0.195-1.693,0.586
				c-0.434,0.389-0.748,0.941-0.942,1.652v5.271c0.265,0.153,0.586,0.27,0.963,0.346s0.767,0.114,1.171,0.114
				c0.947,0,1.705-0.335,2.269-1.004c0.564-0.67,0.847-1.715,0.847-3.137c0-0.545-0.048-1.054-0.146-1.528
				c-0.099-0.473-0.25-0.878-0.46-1.214c-0.209-0.334-0.477-0.598-0.805-0.792C771.915,925.565,771.513,925.468,771.04,925.468z"/>
			<path fill="#0E4467" d="M780.858,931.031l0.59,2.008h0.104l0.462-2.028l2.035-6.757h1.673l-3.095,9.393
				c-0.238,0.682-0.472,1.346-0.7,1.986c-0.231,0.641-0.485,1.215-0.764,1.716c-0.278,0.502-0.595,0.901-0.941,1.202
				c-0.349,0.299-0.754,0.45-1.215,0.45c-0.501,0-0.911-0.071-1.232-0.209l0.292-1.443c0.182,0.068,0.355,0.104,0.523,0.104
				c0.39,0,0.767-0.207,1.131-0.618c0.361-0.411,0.66-1.118,0.898-2.123l-4.205-10.458h1.925L780.858,931.031z"/>
		</g>
	</g>
</g>
<g id="Layer_3">
</g>
</svg>
